<?xml version="1.0"?>
<svg width="426" height="416.35200000000003" xmlns="http://www.w3.org/2000/svg" xmlns:svg="http://www.w3.org/2000/svg" version="1.0">
 <metadata id="metadata395">image/svg+xml</metadata>
 <defs id="defs3">
  <pattern height="6" id="WMFhbasepattern" patternUnits="userSpaceOnUse" width="6" x="0" y="0"/>
 </defs>
 <g class="layer">
  <title>Layer 1</title>
  <path d="m124.26519,21.69412c0,-0.74883 0.60804,-1.35588 1.35809,-1.35588l70.62066,0c0.75005,0 1.35809,0.60705 1.35809,1.35588l0,25.76178c0,0.74883 -0.60804,1.35588 -1.35809,1.35588l-70.62066,0c-0.75005,0 -1.35809,-0.60705 -1.35809,-1.35588l0,-25.76178z" fill="#ffffff" fill-rule="evenodd" id="path15"/>
  <path d="m122.9071,20.33824c0,-0.74883 0.60804,-1.35588 1.35809,-1.35588l70.62066,0c0.75005,0 1.35809,0.60705 1.35809,1.35588l0,25.76177c0,0.74884 -0.60804,1.35589 -1.35809,1.35589l-70.62066,0c-0.75005,0 -1.35809,-0.60705 -1.35809,-1.35589l0,-25.76177z" fill="#ffffff" fill-rule="evenodd" id="path17" stroke="#000000" stroke-linecap="round" stroke-linejoin="round" stroke-miterlimit="4" stroke-width="0.679045px"/>
  <path d="m122.9071,20.33824c0,-0.74883 0.60804,-1.35588 1.35809,-1.35588l70.62066,0c0.75005,0 1.35809,0.60705 1.35809,1.35588l0,25.76177c0,0.74884 -0.60804,1.35589 -1.35809,1.35589l-70.62066,0c-0.75005,0 -1.35809,-0.60705 -1.35809,-1.35589l0,-25.76177z" fill="none" id="path19" stroke="#000000" stroke-linecap="round" stroke-linejoin="round" stroke-miterlimit="4" stroke-width="0.679045px"/>
  <text fill="#000000" font-family="Calibri" font-size="5.4375px" font-style="normal" font-weight="400" id="text29" letter-spacing="0px" text-anchor="middle" transform="matrix(1.000000,-0.000000,0.000000,1.000000,145.315582,22.372065)" word-spacing="0px" x="17.128922" xml:space="preserve" y="5.047211">
   <tspan id="tspan23" x="17.128922" y="5.047211">
    <tspan dx="0" dy="0" fill="#000000" font-family="Calibri" font-size="5.4375px" font-style="normal" font-weight="400" id="tspan21">«metaclass»</tspan>
   </tspan>
   <tspan id="tspan27" x="17.058731" y="11.826624">
    <tspan dx="0" dy="0" fill="#000000" font-family="Calibri" font-size="5.4375px" font-style="normal" font-weight="700" id="tspan25">(Pakke)</tspan>
   </tspan>
  </text>
  <text fill="#000000" font-family="Calibri" font-size="5.4375px" font-style="normal" font-weight="700" id="text35" letter-spacing="0px" text-anchor="start" transform="matrix(1.000000,-0.000000,0.000000,1.000000,145.315582,22.372065)" word-spacing="0px" x="4.753313" xml:space="preserve" y="19.283979">
   <tspan id="tspan33" x="4.753313" y="19.283979">
    <tspan dx="0" dy="0" fill="#000000" font-family="Calibri" font-size="5.4375px" font-style="normal" font-weight="700" id="tspan31">Package</tspan>
   </tspan>
  </text>
  <path d="m77.4111,77.28532c0,-0.74884 0.60804,-1.35589 1.35809,-1.35589l158.21744,0c0.75005,0 1.35809,0.60705 1.35809,1.35589l0,164.73975c0,0.74883 -0.60804,1.35588 -1.35809,1.35588l-158.21744,0c-0.75005,0 -1.35809,-0.60705 -1.35809,-1.35588l0,-164.73975z" fill="#ffffff" fill-rule="evenodd" id="path37"/>
  <path d="m75.37397,75.92943c0,-0.74883 0.60804,-1.35588 1.35809,-1.35588l158.89648,0c0.75005,0 1.35809,0.60705 1.35809,1.35588l0,164.73976c0,0.74883 -0.60804,1.35588 -1.35809,1.35588l-158.89648,0c-0.75005,0 -1.35809,-0.60705 -1.35809,-1.35588l0,-164.73976z" fill="#fefaf7" fill-rule="evenodd" id="path39" stroke="#000000" stroke-linecap="round" stroke-linejoin="round" stroke-miterlimit="4" stroke-width="0.679045px"/>
  <path d="m75.37397,75.92943c0,-0.74883 0.60804,-1.35588 1.35809,-1.35588l158.89648,0c0.75005,0 1.35809,0.60705 1.35809,1.35588l0,164.73976c0,0.74883 -0.60804,1.35588 -1.35809,1.35588l-158.89648,0c-0.75005,0 -1.35809,-0.60705 -1.35809,-1.35588l0,-164.73976z" fill="none" id="path41" stroke="#000000" stroke-linecap="round" stroke-linejoin="round" stroke-miterlimit="4" stroke-width="0.679045px"/>
  <text fill="#000000" font-family="Calibri" font-size="5.4375px" font-style="normal" font-weight="700" id="text47" letter-spacing="0px" text-anchor="start" transform="matrix(1.000000,-0.000000,0.000000,1.000000,141.920358,79.319140)" word-spacing="0px" x="0" xml:space="preserve" y="5.047211">
   <tspan id="tspan45" x="0" y="5.047211">
    <tspan dx="0" dy="0" fill="#000000" font-family="Calibri" font-size="5.4375px" font-style="normal" font-weight="700" id="tspan43">(Model)</tspan>
   </tspan>
  </text>
  <text fill="#000000" font-family="Calibri" font-size="5.4375px" font-style="normal" font-weight="700" id="text53" letter-spacing="0px" text-anchor="start" transform="matrix(1.000000,-0.000000,0.000000,1.000000,141.920358,79.319140)" word-spacing="0px" x="1.35809" xml:space="preserve" y="11.826624">
   <tspan id="tspan51" x="1.35809" y="11.826624">
    <tspan dx="0" dy="0" fill="#000000" font-family="Calibri" font-size="5.4375px" font-style="normal" font-weight="700" id="tspan49">Model</tspan>
   </tspan>
  </text>
  <path d="m75.37397,96.26767l160.93361,0" fill="none" id="path55" stroke="#000000" stroke-linecap="round" stroke-linejoin="round" stroke-miterlimit="4" stroke-width="0.679045px"/>
  <text fill="#000000" font-family="Calibri" font-size="5.4375px" font-style="normal" font-weight="400" id="text65" letter-spacing="0px" text-anchor="start" transform="matrix(1.000000,-0.000000,0.000000,1.000000,78.090149,98.301498)" word-spacing="0px" x="0" xml:space="preserve" y="5.047211">
   <tspan id="tspan59" x="0" y="5.047211">
    <tspan dx="0" dy="0" fill="#3C3C3C" font-family="Calibri" font-size="5.4375px" font-style="normal" font-weight="400" id="tspan57">(namespace) vaem:namespace: xsd:anyURI</tspan>
   </tspan>
   <tspan id="tspan63" x="0" y="11.826624">
    <tspan dx="0" dy="0" fill="#3C3C3C" font-family="Calibri" font-size="5.4375px" font-style="normal" font-weight="400" id="tspan61">(foretukkrentPrefix) vaem:namespacePrefix: xsd:strring</tspan>
   </tspan>
  </text>
  <text fill="#000000" font-family="Calibri" font-size="5.4375px" font-style="normal" font-weight="400" id="text79" letter-spacing="0px" text-anchor="start" transform="matrix(1.000000,-0.000000,0.000000,1.000000,78.090149,98.301498)" word-spacing="0px" x="0" xml:space="preserve" y="19.283979">
   <tspan id="tspan69" x="0" y="19.283979">
    <tspan dx="0" dy="0" fill="#3C3C3C" font-family="Calibri" font-size="5.4375px" font-style="normal" font-weight="400" id="tspan67">(betegnelse (da)) rdfs:label (da): xsd:string [0..*]</tspan>
   </tspan>
   <tspan id="tspan73" x="0" y="26.063393">
    <tspan dx="0" dy="0" fill="#3C3C3C" font-family="Calibri" font-size="5.4375px" font-style="normal" font-weight="400" id="tspan71">(betegnelse (en)) rdfs:label (en): xsd:string [0..*]</tspan>
   </tspan>
   <tspan id="tspan77" x="0" y="32.842807">
    <tspan dx="0" dy="0" fill="#3C3C3C" font-family="Calibri" font-size="5.4375px" font-style="normal" font-weight="400" id="tspan75">(modelansvarlig) frbr:responsibleEntity: xsd:string</tspan>
   </tspan>
  </text>
  <text fill="#000000" font-family="Calibri" font-size="5.4375px" font-style="normal" font-weight="400" id="text89" letter-spacing="0px" text-anchor="start" transform="matrix(1.000000,-0.000000,0.000000,1.000000,78.090149,98.301498)" word-spacing="0px" x="0" xml:space="preserve" y="40.300162">
   <tspan id="tspan83" x="0" y="40.300162">
    <tspan dx="0" dy="0" fill="#3C3C3C" font-family="Calibri" font-size="5.4375px" font-style="normal" font-weight="400" id="tspan81">(udgiver) dct:publisher: xsd:string [0..1]</tspan>
   </tspan>
   <tspan id="tspan87" x="0" y="47.079576">
    <tspan dx="0" dy="0" fill="#3C3C3C" font-family="Calibri" font-size="5.4375px" font-style="normal" font-weight="400" id="tspan85">(emne) dcat:theme: xsd:string [0..*]</tspan>
   </tspan>
  </text>
  <text fill="#000000" font-family="Calibri" font-size="5.4375px" font-style="normal" font-weight="400" id="text103" letter-spacing="0px" text-anchor="start" transform="matrix(1.000000,-0.000000,0.000000,1.000000,78.090149,98.301498)" word-spacing="0px" x="0" xml:space="preserve" y="54.536931">
   <tspan id="tspan93" x="0" y="54.536931">
    <tspan dx="0" dy="0" fill="#3C3C3C" font-family="Calibri" font-size="5.4375px" font-style="normal" font-weight="400" id="tspan91">(senesteOpdateringsdato) dct:modified: xsd:date</tspan>
   </tspan>
   <tspan id="tspan97" x="0" y="61.316344">
    <tspan dx="0" dy="0" fill="#3C3C3C" font-family="Calibri" font-size="5.4375px" font-style="normal" font-weight="400" id="tspan95">(versionsnummer) owl:versionInfo: xsd:string</tspan>
   </tspan>
   <tspan id="tspan101" x="0" y="68.095758">
    <tspan dx="0" dy="0" fill="#3C3C3C" font-family="Calibri" font-size="5.4375px" font-style="normal" font-weight="400" id="tspan99">(modelstatus) adm:status: Modelstatus</tspan>
   </tspan>
  </text>
  <text fill="#000000" font-family="Calibri" font-size="5.4375px" font-style="normal" font-weight="400" id="text113" letter-spacing="0px" text-anchor="start" transform="matrix(1.000000,-0.000000,0.000000,1.000000,78.090149,98.301498)" word-spacing="0px" x="0" xml:space="preserve" y="75.553113">
   <tspan id="tspan107" x="0" y="75.553113">
    <tspan dx="0" dy="0" fill="#3C3C3C" font-family="Calibri" font-size="5.4375px" font-style="normal" font-weight="400" id="tspan105">(godkendelsesstatus) voag:approvalStatus: Godkendelsesstatus</tspan>
   </tspan>
   <tspan id="tspan111" x="0" y="82.332527">
    <tspan dx="0" dy="0" fill="#3C3C3C" font-family="Calibri" font-size="5.4375px" font-style="normal" font-weight="400" id="tspan109">(modelomfang) mdl:modelScope: Modelomfang</tspan>
   </tspan>
  </text>
  <text fill="#000000" font-family="Calibri" font-size="5.4375px" font-style="normal" font-weight="400" id="text127" letter-spacing="0px" text-anchor="start" transform="matrix(1.000000,-0.000000,0.000000,1.000000,78.090149,98.301498)" word-spacing="0px" x="0" xml:space="preserve" y="89.789882">
   <tspan id="tspan117" x="0" y="89.789882">
    <tspan dx="0" dy="0" fill="#3C3C3C" font-family="Calibri" font-size="5.4375px" font-style="normal" font-weight="400" id="tspan115">(juridiskKilde) mdl:legalSource: xsd:anyURI [0..*]</tspan>
   </tspan>
   <tspan id="tspan121" x="0" y="96.569295">
    <tspan dx="0" dy="0" fill="#3C3C3C" font-family="Calibri" font-size="5.4375px" font-style="normal" font-weight="400" id="tspan119">(kilde) dct:source: xsd:string [0..*]</tspan>
   </tspan>
   <tspan id="tspan125" x="0" y="103.348709">
    <tspan dx="0" dy="0" fill="#3C3C3C" font-family="Calibri" font-size="5.4375px" font-style="normal" font-weight="400" id="tspan123">(kommentar (da)) rdfs:comment (da): sxd:string [1..*]</tspan>
   </tspan>
  </text>
  <text fill="#000000" font-family="Calibri" font-size="5.4375px" font-style="normal" font-weight="400" id="text137" letter-spacing="0px" text-anchor="start" transform="matrix(1.000000,-0.000000,0.000000,1.000000,78.090149,98.301498)" word-spacing="0px" x="0" xml:space="preserve" y="110.806064">
   <tspan id="tspan131" x="0" y="110.806064">
    <tspan dx="0" dy="0" fill="#3C3C3C" font-family="Calibri" font-size="5.4375px" font-style="normal" font-weight="400" id="tspan129">(kommentar (en)) rdfs:comment (en): xsd:string [0..*]</tspan>
   </tspan>
   <tspan id="tspan135" x="0" y="117.585478">
    <tspan dx="0" dy="0" fill="#3C3C3C" font-family="Calibri" font-size="5.4375px" font-style="normal" font-weight="400" id="tspan133">(erAfledtAf) prov:wasDerivedFrom: xsd:anyURI [0..*]</tspan>
   </tspan>
  </text>
  <text fill="#000000" font-family="Calibri" font-size="5.4375px" font-style="normal" font-weight="400" id="text151" letter-spacing="0px" text-anchor="start" transform="matrix(1.000000,-0.000000,0.000000,1.000000,78.090149,98.301498)" word-spacing="0px" x="0" xml:space="preserve" y="125.042833">
   <tspan id="tspan141" x="0" y="125.042833">
    <tspan dx="0" dy="0" fill="#3C3C3C" font-family="Calibri" font-size="5.4375px" font-style="normal" font-weight="400" id="tspan139">(godkendtAf) voag:approvedBy: xsd:string [0..1]</tspan>
   </tspan>
   <tspan id="tspan145" x="0" y="131.822247">
    <tspan dx="0" dy="0" fill="#3C3C3C" font-family="Calibri" font-size="5.4375px" font-style="normal" font-weight="400" id="tspan143">(sprog) dct:language: xsd:string</tspan>
   </tspan>
   <tspan id="tspan149" x="0" y="138.60166">
    <tspan dx="0" dy="0" fill="#3C3C3C" font-family="Calibri" font-size="5.4375px" font-style="normal" font-weight="400" id="tspan147">(ændringshistorik) owl:versionNotes: xsd:string [0..*]</tspan>
   </tspan>
  </text>
  <path d="m14.93899,295.58244c0,-0.74884 0.60803,-1.35589 1.35808,-1.35589l64.50926,0c0.75005,0 1.35809,0.60705 1.35809,1.35589l0,24.40589c0,0.74883 -0.60804,1.35588 -1.35809,1.35588l-64.50926,0c-0.75005,0 -1.35808,-0.60705 -1.35808,-1.35588l0,-24.40589z" fill="#ffffff" fill-rule="evenodd" id="path153"/>
  <path d="m13.5809,293.54861c0,-0.74883 0.60803,-1.35588 1.35809,-1.35588l64.50925,0c0.75005,0 1.35809,0.60705 1.35809,1.35588l0,24.40589c0,0.74883 -0.60804,1.35588 -1.35809,1.35588l-64.50925,0c-0.75006,0 -1.35809,-0.60705 -1.35809,-1.35588l0,-24.40589z" fill="#fefaf7" fill-rule="evenodd" id="path155" stroke="#000000" stroke-linecap="round" stroke-linejoin="round" stroke-miterlimit="4" stroke-width="0.679045px"/>
  <path d="m13.5809,293.54861c0,-0.74883 0.60803,-1.35588 1.35809,-1.35588l64.50925,0c0.75005,0 1.35809,0.60705 1.35809,1.35588l0,24.40589c0,0.74883 -0.60804,1.35588 -1.35809,1.35588l-64.50925,0c-0.75006,0 -1.35809,-0.60705 -1.35809,-1.35588l0,-24.40589z" fill="none" id="path157" stroke="#000000" stroke-linecap="round" stroke-linejoin="round" stroke-miterlimit="4" stroke-width="0.679045px"/>
  <text fill="#000000" font-family="Calibri" font-size="5.4375px" font-style="normal" font-weight="700" id="text163" letter-spacing="0px" text-anchor="start" transform="matrix(1.000000,-0.000000,0.000000,1.000000,23.766567,296.938319)" word-spacing="0px" x="0" xml:space="preserve" y="5.047211">
   <tspan id="tspan161" x="0" y="5.047211">
    <tspan dx="0" dy="0" fill="#000000" font-family="Calibri" font-size="5.4375px" font-style="normal" font-weight="700" id="tspan159">(Begrebsmodel)</tspan>
   </tspan>
  </text>
  <text fill="#000000" font-family="Calibri" font-size="5.4375px" font-style="normal" font-weight="700" id="text169" letter-spacing="0px" text-anchor="start" transform="matrix(1.000000,-0.000000,0.000000,1.000000,23.766567,296.938319)" word-spacing="0px" x="2.037134" xml:space="preserve" y="12.504566">
   <tspan id="tspan167" x="2.037134" y="12.504566">
    <tspan dx="0" dy="0" fill="#000000" font-family="Calibri" font-size="5.4375px" font-style="normal" font-weight="700" id="tspan165">ConceptModel</tspan>
   </tspan>
  </text>
  <path d="m263.46937,59.65884c0,-0.74883 0.60804,-1.35588 1.35809,-1.35588l158.89648,0c0.75005,0 1.35809,0.60705 1.35809,1.35588l0,57.62502c0,0.74883 -0.60804,1.35588 -1.35809,1.35588l-158.89648,0c-0.75005,0 -1.35809,-0.60705 -1.35809,-1.35588l0,-57.62502z" fill="#ffffff" fill-rule="evenodd" id="path171"/>
  <path d="m262.11128,58.30296c0,-0.74884 0.60804,-1.35589 1.35809,-1.35589l158.21744,0c0.75005,0 1.35809,0.60705 1.35809,1.35589l0,57.62501c0,0.74884 -0.60804,1.35589 -1.35809,1.35589l-158.21744,0c-0.75005,0 -1.35809,-0.60705 -1.35809,-1.35589l0,-57.62501z" fill="#e8fde3" fill-rule="evenodd" id="path173" stroke="#000000" stroke-linecap="round" stroke-linejoin="round" stroke-miterlimit="4" stroke-width="0.679045px"/>
  <path d="m262.11128,58.30296c0,-0.74884 0.60804,-1.35589 1.35809,-1.35589l158.21744,0c0.75005,0 1.35809,0.60705 1.35809,1.35589l0,57.62501c0,0.74884 -0.60804,1.35589 -1.35809,1.35589l-158.21744,0c-0.75005,0 -1.35809,-0.60705 -1.35809,-1.35589l0,-57.62501z" fill="none" id="path175" stroke="#000000" stroke-linecap="round" stroke-linejoin="round" stroke-miterlimit="4" stroke-width="0.679045px"/>
  <text fill="#000000" font-family="Calibri" font-size="5.4375px" font-style="normal" font-weight="400" id="text181" letter-spacing="0px" text-anchor="start" transform="matrix(1.000000,-0.000000,0.000000,1.000000,325.941493,60.336782)" word-spacing="0px" x="0" xml:space="preserve" y="5.047211">
   <tspan id="tspan179" x="0" y="5.047211">
    <tspan dx="0" dy="0" fill="#000000" font-family="Calibri" font-size="5.4375px" font-style="normal" font-weight="400" id="tspan177">«enumeration»</tspan>
   </tspan>
  </text>
  <text fill="#000000" font-family="Calibri" font-size="5.4375px" font-style="normal" font-weight="700" id="text187" letter-spacing="0px" text-anchor="start" transform="matrix(1.000000,-0.000000,0.000000,1.000000,325.941493,60.336782)" word-spacing="0px" x="1.35809" xml:space="preserve" y="11.826624">
   <tspan id="tspan185" x="1.35809" y="11.826624">
    <tspan dx="0" dy="0" fill="#000000" font-family="Calibri" font-size="5.4375px" font-style="normal" font-weight="700" id="tspan183">(Modelstatus)</tspan>
   </tspan>
  </text>
  <text fill="#000000" font-family="Calibri" font-size="5.4375px" font-style="normal" font-weight="700" id="text193" letter-spacing="0px" text-anchor="start" transform="matrix(1.000000,-0.000000,0.000000,1.000000,325.941493,60.336782)" word-spacing="0px" x="2.716179" xml:space="preserve" y="19.283979">
   <tspan id="tspan191" x="2.716179" y="19.283979">
    <tspan dx="0" dy="0" fill="#000000" font-family="Calibri" font-size="5.4375px" font-style="normal" font-weight="700" id="tspan189">ModelStatus</tspan>
   </tspan>
  </text>
  <path d="m262.11128,84.06473l160.25457,0" fill="none" id="path195" stroke="#000000" stroke-linecap="round" stroke-linejoin="round" stroke-miterlimit="4" stroke-width="0.679045px"/>
  <text fill="#000000" font-family="Calibri" font-size="5.4375px" font-style="normal" font-weight="400" id="text205" letter-spacing="0px" text-anchor="start" transform="matrix(1.000000,-0.000000,0.000000,1.000000,264.827463,86.098554)" word-spacing="0px" x="0" xml:space="preserve" y="5.047211">
   <tspan id="tspan199" x="0" y="5.047211">
    <tspan dx="0" dy="0" fill="#3C3C3C" font-family="Calibri" font-size="5.4375px" font-style="normal" font-weight="400" id="tspan197">(under udvikling) development</tspan>
   </tspan>
   <tspan id="tspan203" x="0" y="12.504566">
    <tspan dx="0" dy="0" fill="#3C3C3C" font-family="Calibri" font-size="5.4375px" font-style="normal" font-weight="400" id="tspan201">(trukket tilbage) withdrawn</tspan>
   </tspan>
  </text>
  <text fill="#000000" font-family="Calibri" font-size="5.4375px" font-style="normal" font-weight="400" id="text215" letter-spacing="0px" text-anchor="start" transform="matrix(1.000000,-0.000000,0.000000,1.000000,264.827463,86.098554)" word-spacing="0px" x="0" xml:space="preserve" y="19.283979">
   <tspan id="tspan209" x="0" y="19.283979">
    <tspan dx="0" dy="0" fill="#3C3C3C" font-family="Calibri" font-size="5.4375px" font-style="normal" font-weight="400" id="tspan207">(endelig) stable</tspan>
   </tspan>
   <tspan id="tspan213" x="0" y="26.063393">
    <tspan dx="0" dy="0" fill="#3C3C3C" font-family="Calibri" font-size="5.4375px" font-style="normal" font-weight="400" id="tspan211">(forældet) obsolete</tspan>
   </tspan>
  </text>
  <path d="m263.46937,129.4868c0,-0.74883 0.60804,-1.35588 1.35809,-1.35588l158.89648,0c0.75005,0 1.35809,0.60705 1.35809,1.35588l0,57.62502c0,0.74883 -0.60804,1.35588 -1.35809,1.35588l-158.89648,0c-0.75005,0 -1.35809,-0.60705 -1.35809,-1.35588l0,-57.62502z" fill="#ffffff" fill-rule="evenodd" id="path217"/>
  <path d="m262.11128,127.45298c0,-0.74884 0.60804,-1.35589 1.35809,-1.35589l158.21744,0c0.75005,0 1.35809,0.60705 1.35809,1.35589l0,57.62501c0,0.74884 -0.60804,1.35589 -1.35809,1.35589l-158.21744,0c-0.75005,0 -1.35809,-0.60705 -1.35809,-1.35589l0,-57.62501z" fill="#e8fde3" fill-rule="evenodd" id="path219" stroke="#000000" stroke-linecap="round" stroke-linejoin="round" stroke-miterlimit="4" stroke-width="0.679045px"/>
  <path d="m262.11128,127.45298c0,-0.74884 0.60804,-1.35589 1.35809,-1.35589l158.21744,0c0.75005,0 1.35809,0.60705 1.35809,1.35589l0,57.62501c0,0.74884 -0.60804,1.35589 -1.35809,1.35589l-158.21744,0c-0.75005,0 -1.35809,-0.60705 -1.35809,-1.35589l0,-57.62501z" fill="none" id="path221" stroke="#000000" stroke-linecap="round" stroke-linejoin="round" stroke-miterlimit="4" stroke-width="0.679045px"/>
  <text fill="#000000" font-family="Calibri" font-size="5.4375px" font-style="normal" font-weight="400" id="text227" letter-spacing="0px" text-anchor="start" transform="matrix(1.000000,-0.000000,0.000000,1.000000,325.941493,129.486801)" word-spacing="0px" x="0" xml:space="preserve" y="5.047211">
   <tspan id="tspan225" x="0" y="5.047211">
    <tspan dx="0" dy="0" fill="#000000" font-family="Calibri" font-size="5.4375px" font-style="normal" font-weight="400" id="tspan223">«enumeration»</tspan>
   </tspan>
  </text>
  <text fill="#000000" font-family="Calibri" font-size="5.4375px" font-style="normal" font-weight="700" id="text233" letter-spacing="0px" text-anchor="start" transform="matrix(1.000000,-0.000000,0.000000,1.000000,325.941493,129.486801)" word-spacing="0px" x="-6.790448" xml:space="preserve" y="12.504566">
   <tspan id="tspan231" x="-6.790448" y="12.504566">
    <tspan dx="0" dy="0" fill="#000000" font-family="Calibri" font-size="5.4375px" font-style="normal" font-weight="700" id="tspan229">(Godkendelsesstatus)</tspan>
   </tspan>
  </text>
  <text fill="#000000" font-family="Calibri" font-size="5.4375px" font-style="normal" font-weight="700" id="text239" letter-spacing="0px" text-anchor="start" transform="matrix(1.000000,-0.000000,0.000000,1.000000,325.941493,129.486801)" word-spacing="0px" x="-0.679045" xml:space="preserve" y="19.283979">
   <tspan id="tspan237" x="-0.679045" y="19.283979">
    <tspan dx="0" dy="0" fill="#000000" font-family="Calibri" font-size="5.4375px" font-style="normal" font-weight="700" id="tspan235">ApprovalStatus</tspan>
   </tspan>
  </text>
  <path d="m262.11128,153.21475l160.25457,0" fill="none" id="path241" stroke="#000000" stroke-linecap="round" stroke-linejoin="round" stroke-miterlimit="4" stroke-width="0.679045px"/>
  <text fill="#000000" font-family="Calibri" font-size="5.4375px" font-style="normal" font-weight="400" id="text255" letter-spacing="0px" text-anchor="start" transform="matrix(1.000000,-0.000000,0.000000,1.000000,264.827463,155.926515)" word-spacing="0px" x="0" xml:space="preserve" y="5.047211">
   <tspan id="tspan245" x="0" y="5.047211">
    <tspan dx="0" dy="0" fill="#3C3C3C" font-family="Calibri" font-size="5.4375px" font-style="normal" font-weight="400" id="tspan243">(ikke relevant) not applicable</tspan>
   </tspan>
   <tspan id="tspan249" x="0" y="11.826624">
    <tspan dx="0" dy="0" fill="#3C3C3C" font-family="Calibri" font-size="5.4375px" font-style="normal" font-weight="400" id="tspan247">(afventer godkendelse) awaiting approval</tspan>
   </tspan>
   <tspan id="tspan253" x="0" y="18.606038">
    <tspan dx="0" dy="0" fill="#3C3C3C" font-family="Calibri" font-size="5.4375px" font-style="normal" font-weight="400" id="tspan251">(godkendt med bemærkninger) approved with remarks</tspan>
   </tspan>
  </text>
  <text fill="#000000" font-family="Calibri" font-size="5.4375px" font-style="normal" font-weight="400" id="text261" letter-spacing="0px" text-anchor="start" transform="matrix(1.000000,-0.000000,0.000000,1.000000,264.827463,155.926515)" word-spacing="0px" x="0" xml:space="preserve" y="26.063393">
   <tspan id="tspan259" x="0" y="26.063393">
    <tspan dx="0" dy="0" fill="#3C3C3C" font-family="Calibri" font-size="5.4375px" font-style="normal" font-weight="400" id="tspan257">(godkendt) approved</tspan>
   </tspan>
  </text>
  <path d="m88.95487,295.58244c0,-0.74884 0.60803,-1.35589 1.35809,-1.35589l64.50925,0c0.75005,0 1.35809,0.60705 1.35809,1.35589l0,24.40589c0,0.74883 -0.60804,1.35588 -1.35809,1.35588l-64.50925,0c-0.75006,0 -1.35809,-0.60705 -1.35809,-1.35588l0,-24.40589z" fill="#ffffff" fill-rule="evenodd" id="path263"/>
  <path d="m87.59678,293.54861c0,-0.74883 0.60803,-1.35588 1.35809,-1.35588l63.8302,0c0.75006,0 1.35809,0.60705 1.35809,1.35588l0,24.40589c0,0.74883 -0.60803,1.35588 -1.35809,1.35588l-63.8302,0c-0.75006,0 -1.35809,-0.60705 -1.35809,-1.35588l0,-24.40589z" fill="#fefaf7" fill-rule="evenodd" id="path265" stroke="#000000" stroke-linecap="round" stroke-linejoin="round" stroke-miterlimit="4" stroke-width="0.679045px"/>
  <path d="m87.59678,293.54861c0,-0.74883 0.60803,-1.35588 1.35809,-1.35588l63.8302,0c0.75006,0 1.35809,0.60705 1.35809,1.35588l0,24.40589c0,0.74883 -0.60803,1.35588 -1.35809,1.35588l-63.8302,0c-0.75006,0 -1.35809,-0.60705 -1.35809,-1.35588l0,-24.40589z" fill="none" id="path267" stroke="#000000" stroke-linecap="round" stroke-linejoin="round" stroke-miterlimit="4" stroke-width="0.679045px"/>
  <text fill="#000000" font-family="Calibri" font-size="5.4375px" font-style="normal" font-weight="700" id="text273" letter-spacing="0px" text-anchor="start" transform="matrix(1.000000,-0.000000,0.000000,1.000000,93.029134,296.938319)" word-spacing="0px" x="0" xml:space="preserve" y="5.047211">
   <tspan id="tspan271" x="0" y="5.047211">
    <tspan dx="0" dy="0" fill="#000000" font-family="Calibri" font-size="5.4375px" font-style="normal" font-weight="700" id="tspan269">(Informationsmodel)</tspan>
   </tspan>
  </text>
  <text fill="#000000" font-family="Calibri" font-size="5.4375px" font-style="normal" font-weight="700" id="text279" letter-spacing="0px" text-anchor="start" transform="matrix(1.000000,-0.000000,0.000000,1.000000,93.029134,296.938319)" word-spacing="0px" x="2.037134" xml:space="preserve" y="12.504566">
   <tspan id="tspan277" x="2.037134" y="12.504566">
    <tspan dx="0" dy="0" fill="#000000" font-family="Calibri" font-size="5.4375px" font-style="normal" font-weight="700" id="tspan275">InformationModel</tspan>
   </tspan>
  </text>
  <path d="m162.97075,295.58244c0,-0.74884 0.60803,-1.35589 1.35809,-1.35589l64.50925,0c0.75005,0 1.35809,0.60705 1.35809,1.35589l0,24.40589c0,0.74883 -0.60804,1.35588 -1.35809,1.35588l-64.50925,0c-0.75006,0 -1.35809,-0.60705 -1.35809,-1.35588l0,-24.40589z" fill="#ffffff" fill-rule="evenodd" id="path281"/>
  <path d="m161.61266,293.54861c0,-0.74883 0.60803,-1.35588 1.35809,-1.35588l63.83021,0c0.75005,0 1.35808,0.60705 1.35808,1.35588l0,24.40589c0,0.74883 -0.60803,1.35588 -1.35808,1.35588l-63.83021,0c-0.75006,0 -1.35809,-0.60705 -1.35809,-1.35588l0,-24.40589z" fill="#fefaf7" fill-rule="evenodd" id="path283" stroke="#000000" stroke-linecap="round" stroke-linejoin="round" stroke-miterlimit="4" stroke-width="0.679045px"/>
  <path d="m161.61266,293.54861c0,-0.74883 0.60803,-1.35588 1.35809,-1.35588l63.83021,0c0.75005,0 1.35808,0.60705 1.35808,1.35588l0,24.40589c0,0.74883 -0.60803,1.35588 -1.35808,1.35588l-63.83021,0c-0.75006,0 -1.35809,-0.60705 -1.35809,-1.35588l0,-24.40589z" fill="none" id="path285" stroke="#000000" stroke-linecap="round" stroke-linejoin="round" stroke-miterlimit="4" stroke-width="0.679045px"/>
  <text fill="#000000" font-family="Calibri" font-size="5.4375px" font-style="normal" font-weight="700" id="text291" letter-spacing="0px" text-anchor="start" transform="matrix(1.000000,-0.000000,0.000000,1.000000,169.082149,296.938319)" word-spacing="0px" x="0" xml:space="preserve" y="5.047211">
   <tspan id="tspan289" x="0" y="5.047211">
    <tspan dx="0" dy="0" fill="#000000" font-family="Calibri" font-size="5.4375px" font-style="normal" font-weight="700" id="tspan287">(LogiskDatamodel)</tspan>
   </tspan>
  </text>
  <text fill="#000000" font-family="Calibri" font-size="5.4375px" font-style="normal" font-weight="700" id="text297" letter-spacing="0px" text-anchor="start" transform="matrix(1.000000,-0.000000,0.000000,1.000000,169.082149,296.938319)" word-spacing="0px" x="0.679045" xml:space="preserve" y="12.504566">
   <tspan id="tspan295" x="0.679045" y="12.504566">
    <tspan dx="0" dy="0" fill="#000000" font-family="Calibri" font-size="5.4375px" font-style="normal" font-weight="700" id="tspan293">LogicalDatamodel</tspan>
   </tspan>
  </text>
  <path d="m236.98663,295.58244c0,-0.74884 0.60803,-1.35589 1.35809,-1.35589l67.22543,0c0.75005,0 1.35809,0.60705 1.35809,1.35589l0,24.40589c0,0.74883 -0.60804,1.35588 -1.35809,1.35588l-67.22543,0c-0.75006,0 -1.35809,-0.60705 -1.35809,-1.35588l0,-24.40589z" fill="#ffffff" fill-rule="evenodd" id="path299"/>
  <path d="m234.94949,293.54861c0,-0.74883 0.60804,-1.35588 1.35809,-1.35588l67.90448,0c0.75005,0 1.35809,0.60705 1.35809,1.35588l0,24.40589c0,0.74883 -0.60804,1.35588 -1.35809,1.35588l-67.90448,0c-0.75005,0 -1.35809,-0.60705 -1.35809,-1.35588l0,-24.40589z" fill="#fefaf7" fill-rule="evenodd" id="path301" stroke="#000000" stroke-linecap="round" stroke-linejoin="round" stroke-miterlimit="4" stroke-width="0.679045px"/>
  <path d="m234.94949,293.54861c0,-0.74883 0.60804,-1.35588 1.35809,-1.35588l67.90448,0c0.75005,0 1.35809,0.60705 1.35809,1.35588l0,24.40589c0,0.74883 -0.60804,1.35588 -1.35809,1.35588l-67.90448,0c-0.75005,0 -1.35809,-0.60705 -1.35809,-1.35588l0,-24.40589z" fill="none" id="path303" stroke="#000000" stroke-linecap="round" stroke-linejoin="round" stroke-miterlimit="4" stroke-width="0.679045px"/>
  <text fill="#000000" font-family="Calibri" font-size="5.4375px" font-style="normal" font-weight="700" id="text309" letter-spacing="0px" text-anchor="start" transform="matrix(1.000000,-0.000000,0.000000,1.000000,241.060896,296.938319)" word-spacing="0px" x="0" xml:space="preserve" y="5.047211">
   <tspan id="tspan307" x="0" y="5.047211">
    <tspan dx="0" dy="0" fill="#000000" font-family="Calibri" font-size="5.4375px" font-style="normal" font-weight="700" id="tspan305">(Klassifikationsmodel)</tspan>
   </tspan>
  </text>
  <text fill="#000000" font-family="Calibri" font-size="5.4375px" font-style="normal" font-weight="700" id="text315" letter-spacing="0px" text-anchor="start" transform="matrix(1.000000,-0.000000,0.000000,1.000000,241.060896,296.938319)" word-spacing="0px" x="2.716179" xml:space="preserve" y="12.504566">
   <tspan id="tspan313" x="2.716179" y="12.504566">
    <tspan dx="0" dy="0" fill="#000000" font-family="Calibri" font-size="5.4375px" font-style="normal" font-weight="700" id="tspan311">ClassificationModel</tspan>
   </tspan>
  </text>
  <path d="m263.46937,198.63682c0,-0.74883 0.60804,-1.35588 1.35809,-1.35588l158.89648,0c0.75005,0 1.35809,0.60705 1.35809,1.35588l0,43.38825c0,0.74883 -0.60804,1.35588 -1.35809,1.35588l-158.89648,0c-0.75005,0 -1.35809,-0.60705 -1.35809,-1.35588l0,-43.38825z" fill="#ffffff" fill-rule="evenodd" id="path317"/>
  <path d="m262.11128,197.28094c0,-0.74884 0.60804,-1.35588 1.35809,-1.35588l158.21744,0c0.75005,0 1.35809,0.60704 1.35809,1.35588l0,43.38825c0,0.74883 -0.60804,1.35588 -1.35809,1.35588l-158.21744,0c-0.75005,0 -1.35809,-0.60705 -1.35809,-1.35588l0,-43.38825z" fill="#e8fde3" fill-rule="evenodd" id="path319" stroke="#000000" stroke-linecap="round" stroke-linejoin="round" stroke-miterlimit="4" stroke-width="0.679045px"/>
  <path d="m262.11128,197.28094c0,-0.74884 0.60804,-1.35588 1.35809,-1.35588l158.21744,0c0.75005,0 1.35809,0.60704 1.35809,1.35588l0,43.38825c0,0.74883 -0.60804,1.35588 -1.35809,1.35588l-158.21744,0c-0.75005,0 -1.35809,-0.60705 -1.35809,-1.35588l0,-43.38825z" fill="none" id="path321" stroke="#000000" stroke-linecap="round" stroke-linejoin="round" stroke-miterlimit="4" stroke-width="0.679045px"/>
  <text fill="#000000" font-family="Calibri" font-size="5.4375px" font-style="normal" font-weight="400" id="text327" letter-spacing="0px" text-anchor="start" transform="matrix(1.000000,-0.000000,0.000000,1.000000,325.941493,199.314762)" word-spacing="0px" x="0" xml:space="preserve" y="5.047211">
   <tspan id="tspan325" x="0" y="5.047211">
    <tspan dx="0" dy="0" fill="#000000" font-family="Calibri" font-size="5.4375px" font-style="normal" font-weight="400" id="tspan323">«enumeration»</tspan>
   </tspan>
  </text>
  <text fill="#000000" font-family="Calibri" font-size="5.4375px" font-style="normal" font-weight="700" id="text333" letter-spacing="0px" text-anchor="start" transform="matrix(1.000000,-0.000000,0.000000,1.000000,325.941493,199.314762)" word-spacing="0px" x="-0.679045" xml:space="preserve" y="11.826624">
   <tspan id="tspan331" x="-0.679045" y="11.826624">
    <tspan dx="0" dy="0" fill="#000000" font-family="Calibri" font-size="5.4375px" font-style="normal" font-weight="700" id="tspan329">(Modelomfang)</tspan>
   </tspan>
  </text>
  <text fill="#000000" font-family="Calibri" font-size="5.4375px" font-style="normal" font-weight="700" id="text339" letter-spacing="0px" text-anchor="start" transform="matrix(1.000000,-0.000000,0.000000,1.000000,325.941493,199.314762)" word-spacing="0px" x="2.716179" xml:space="preserve" y="18.606038">
   <tspan id="tspan337" x="2.716179" y="18.606038">
    <tspan dx="0" dy="0" fill="#000000" font-family="Calibri" font-size="5.4375px" font-style="normal" font-weight="700" id="tspan335">ModelScope</tspan>
   </tspan>
  </text>
  <path d="m262.11128,223.04271l160.25457,0" fill="none" id="path341" stroke="#000000" stroke-linecap="round" stroke-linejoin="round" stroke-miterlimit="4" stroke-width="0.679045px"/>
  <text fill="#000000" font-family="Calibri" font-size="5.4375px" font-style="normal" font-weight="400" id="text351" letter-spacing="0px" text-anchor="start" transform="matrix(1.000000,-0.000000,0.000000,1.000000,264.827463,225.076534)" word-spacing="0px" x="0" xml:space="preserve" y="5.047211">
   <tspan id="tspan345" x="0" y="5.047211">
    <tspan dx="0" dy="0" fill="#3C3C3C" font-family="Calibri" font-size="5.4375px" font-style="normal" font-weight="400" id="tspan343">(kernemodel) CoreModel</tspan>
   </tspan>
   <tspan id="tspan349" x="0" y="11.826624">
    <tspan dx="0" dy="0" fill="#3C3C3C" font-family="Calibri" font-size="5.4375px" font-style="normal" font-weight="400" id="tspan347">(anvendelsesmodel) ApplicationModel</tspan>
   </tspan>
  </text>
  <path d="m262.11128,98.97944m-25.12465,65.76031l0.67904,-3.3897m1.35809,-2.71177l1.35809,-3.38971m0.67905,-2.03382l1.35809,-4.06765m0.67904,-2.03382l2.03713,-4.06765m0.67905,-2.03383l1.35809,-4.06764m0.67904,-2.03383l1.35809,-3.3897m0.67905,-2.71177l1.35809,-3.38971m1.35809,-2.03382l1.35809,-4.06765m0.67904,-2.03382l1.35809,-4.06765m0.67905,-2.03383l1.35808,-4.06764m1.35809,-2.03383l1.35809,-3.3897m0.67905,-2.71177l0.67904,0" fill="none" id="path353" stroke="#000000" stroke-linecap="round" stroke-linejoin="round" stroke-miterlimit="4" stroke-width="0.679045px"/>
  <path d="m236.98663,164.73975l-2.03714,0l0,2.71177l-4.75331,0m6.79045,-2.71177l-2.03714,0l0,-2.71176l-4.75331,0" fill="none" id="path355" stroke="#000000" stroke-linecap="round" stroke-linejoin="round" stroke-miterlimit="4" stroke-width="0.679045px"/>
  <path d="m262.11128,98.97944l-5.43235,6.10147m5.43235,-6.10147l-0.67904,8.1353" fill="none" id="path357" stroke="#000000" stroke-linecap="round" stroke-linejoin="round" stroke-miterlimit="4" stroke-width="0.679045px"/>
  <path d="m159.57552,74.57355l0,-27.11765" fill="none" id="path359" stroke="#000000" stroke-linecap="round" stroke-linejoin="round" stroke-miterlimit="4" stroke-width="0.679045px"/>
  <path d="m162.97075,55.59119l-6.79045,0l3.39522,-8.13529l3.39523,8.13529z" fill="#000000" fill-rule="evenodd" id="path361" stroke="#000000" stroke-linecap="round" stroke-linejoin="round" stroke-miterlimit="4" stroke-width="0.679045px"/>
  <path d="m236.98663,172.19711m25.12465,0l-4.07427,0m-2.03713,0l-4.07427,0m-2.03713,0l-4.07427,0m-2.03714,0l-3.39522,0m-2.71618,0l-0.67904,0" fill="none" id="path363" stroke="#000000" stroke-linecap="round" stroke-linejoin="round" stroke-miterlimit="4" stroke-width="0.679045px"/>
  <path d="m262.11128,172.19711m-25.12465,0l-2.03714,0l0,2.71176l-4.75331,0m6.79045,-2.71176l-2.03714,0l0,-2.71177l-4.75331,0" fill="none" id="path365" stroke="#000000" stroke-linecap="round" stroke-linejoin="round" stroke-miterlimit="4" stroke-width="0.679045px"/>
  <path d="m262.11128,172.19711l-8.14853,2.71176m8.14853,-2.71176l-8.14853,-2.71177" fill="none" id="path367" stroke="#000000" stroke-linecap="round" stroke-linejoin="round" stroke-miterlimit="4" stroke-width="0.679045px"/>
  <path d="m236.98663,178.97652m25.12465,36.60884l-2.71618,-3.38971m-1.35809,-2.03383l-2.71617,-4.06764m-1.35809,-2.03383l-2.71618,-4.06765m-1.35809,-2.03382l-2.71618,-4.06765m-1.35809,-2.03382l-2.71618,-3.38971m-1.35809,-2.71177l-2.03713,-3.3897m-2.03714,-2.03383l-0.67904,-1.35588" fill="none" id="path369" stroke="#000000" stroke-linecap="round" stroke-linejoin="round" stroke-miterlimit="4" stroke-width="0.679045px"/>
  <path d="m262.11128,215.58536m-25.12465,-36.60884l-2.03714,0l0,2.71177l-4.75331,0m6.79045,-2.71177l-2.03714,0l0,-2.71176l-4.75331,0" fill="none" id="path371" stroke="#000000" stroke-linecap="round" stroke-linejoin="round" stroke-miterlimit="4" stroke-width="0.679045px"/>
  <path d="m262.11128,215.58536l-7.46949,-5.42354m7.46949,5.42354l-2.71618,-8.1353" fill="none" id="path373" stroke="#000000" stroke-linecap="round" stroke-linejoin="round" stroke-miterlimit="4" stroke-width="0.679045px"/>
  <path d="m46.85409,292.19273l0,-23.05001" fill="none" id="path375" stroke="#000000" stroke-linecap="round" stroke-linejoin="round" stroke-miterlimit="4" stroke-width="0.679045px"/>
  <path fill="none" id="path377" stroke="#000000" stroke-linecap="round" stroke-linejoin="round" stroke-miterlimit="4" stroke-width="0.679045px"/>
  <path fill="none" id="path379" stroke="#000000" stroke-linecap="round" stroke-linejoin="round" stroke-miterlimit="4" stroke-width="0.679045px"/>
  <path d="m158.89648,250.83831l-6.11141,0l3.39523,-8.81324l2.71618,8.81324z" fill="#fcf2e3" fill-rule="evenodd" id="path381" stroke="#000000" stroke-linecap="round" stroke-linejoin="round" stroke-miterlimit="4" stroke-width="0.679045px"/>
  <path d="m120.19093,292.19273l0,-23.05001" fill="none" id="path383" stroke="#000000" stroke-linecap="round" stroke-linejoin="round" stroke-miterlimit="4" stroke-width="0.679045px"/>
  <path d="m156.1803,269.14272m0,-27.11765m38.02651,50.16766l0,-23.05001" fill="none" id="path385" stroke="#000000" stroke-linecap="round" stroke-linejoin="round" stroke-miterlimit="4" stroke-width="0.679045px"/>
  <path d="m156.1803,269.14272m0,-27.11765m113.40048,50.16766l0,-23.05001" fill="none" id="path387" stroke="#000000" stroke-linecap="round" stroke-linejoin="round" stroke-miterlimit="4" stroke-width="0.679045px"/>
  <path fill="none" id="path389" stroke="#000000" stroke-linecap="round" stroke-linejoin="round" stroke-miterlimit="4" stroke-width="0.679045px"/>
  <line fill="none" id="svg_1" stroke="#000000" x1="46.952026" x2="268.952026" y1="269.048004" y2="269.048004"/>
  <line fill="none" id="svg_2" stroke="#000000" stroke-dasharray="null" stroke-linecap="null" stroke-linejoin="null" x1="155.885345" x2="155.885345" y1="250.848022" y2="269.848022"/>
 </g>
</svg>